<svg xmlns="http://www.w3.org/2000/svg" width="24" height="24" viewBox="0 0 24 24" fill="#1877F2"><path d="M24 12.073c0-6.627-5.373-12-12-12s-12 5.373-12 12c0 5.99 4.388 10.954 10.125 11.854v-8.385H7.078v-3.47h3.047V9.43c0-3.007 1.792-4.669 4.533-4.669 1.312 0 2.686.235 2.686.235v2.953H15.83c-1.491 0-1.956.925-1.956 1.874v2.25h3.328l-.532 3.47h-2.796v8.385C19.612 23.027 24 18.062 24 12.073z" fill="#1877F2"/><path d="M16.671 15.469L17.203 12H13.874V9.75C13.874 8.801 14.339 7.876 15.83 7.876H17.343V4.923C17.343 4.923 15.969 4.688 14.657 4.688 11.916 4.688 10.124 6.35 10.124 9.43V12H7.078V15.469H10.124V23.854C11.374 24.047 12.656 24.047 13.874 23.854V15.469H16.671Z" fill="white"/></svg>
